PathFileType	4	(X/Y/Z)	D:\TRACE\spot_10-12-23\spot_arm_body_motion_3_10-v60.trc
DataRate	CameraRate	NumFrames	NumMarkers	Units	OrigDataRate	OrigDataStartFrame	OrigNumFrames
100.00	100.00	      39	9	mm	100.00	1	      7000
Frame#	Time	front left toe			Front right toe			aft left toe			aft right toe			Arm			FL body			FR body			AL Body			AR Body			
		X1	Y1	Z1	X2	Y2	Z2	X3	Y3	Z3	X4	Y4	Z4	X5	Y5	Z5	X6	Y6	Z6	X7	Y7	Z7	X8	Y8	Z8	X9	Y9	Z9	

1	0.000	-232.82501	39.57587	-61.03228	251.88268	40.00029	-54.25835	-222.57062	-69.02581	550.15613	237.70729	-73.25422	550.27002	30.73734	903.31091	-169.13620	-65.47892	585.25513	-163.58147	86.87871	590.91229	-164.74059	-61.97648	432.66843	706.89801	89.16640	432.01282	710.32617	
2	0.010	-232.83542	39.60585	-61.05573	251.87236	39.99058	-54.40176	-222.57610	-69.06142	550.18359	237.75385	-73.22939	550.26996	30.86082	902.59052	-169.28242	-65.48009	585.24878	-163.68187	86.93523	590.85388	-164.80876	-61.82822	432.80377	706.99622	89.01377	432.11108	710.23376	
3	0.020	-232.84259	39.61071	-61.04542	251.84497	39.98112	-54.32742	-222.61621	-69.02624	550.16754	237.74577	-73.21458	550.29547	30.98204	902.07007	-169.23920	-65.48615	585.27667	-163.77417	86.95305	590.83801	-164.86688	-61.77230	432.80002	706.86896	88.18585	431.56076	708.31671	
4	0.030	-232.81421	39.62289	-61.07196	251.83629	40.04832	-54.44506	-222.59616	-68.99870	550.14337	237.69168	-73.29666	550.22174	31.02970	901.74561	-169.16173	-65.50954	585.30597	-163.84824	86.98309	590.87561	-164.96201	-61.84821	432.91055	706.82959	87.99416	431.78500	708.26270	
5	0.040	-232.80774	39.65255	-61.07373	251.77525	39.96901	-54.42663	-222.59648	-69.00050	550.14764	237.71005	-73.28958	550.26727	30.98213	901.61426	-169.08136	-65.44001	585.38324	-163.89052	87.06944	590.64612	-164.62500	-61.98675	433.01263	706.85638	88.00886	431.73096	708.26031	
6	0.050	-232.78294	39.65923	-61.08702	251.96646	40.03337	-54.29714	-222.56339	-69.01434	550.12518	237.72054	-73.29917	550.22986	30.92872	901.70691	-168.97844	-65.45266	585.44897	-164.01521	87.17145	590.66162	-164.61343	-62.01087	433.06644	706.77325	88.01690	431.80347	708.19641	
7	0.060	-232.81807	39.69736	-61.11604	251.94847	40.02760	-54.40095	-222.59485	-69.01364	550.10925	237.76753	-73.26315	550.26758	30.70312	902.01160	-168.84697	-65.43305	585.45142	-164.06090	87.23930	590.67181	-164.71208	-62.05350	433.11389	706.69177	87.91698	431.89053	708.15228	
8	0.070	-232.79820	39.69434	-61.11785	251.90164	40.01698	-54.36121	-222.60460	-69.00529	550.13062	237.75543	-73.27703	550.27667	30.42270	902.39264	-168.73230	-65.38869	585.49390	-164.14595	87.28143	590.71918	-164.74384	-62.28798	433.60916	706.77087	87.84602	431.94400	708.13513	
9	0.080	-232.78204	39.71629	-61.12669	251.90617	40.08978	-54.31461	-222.61572	-69.02889	550.10565	237.74356	-73.22731	550.28052	30.29004	902.97882	-168.54414	-65.37901	585.52252	-164.23694	87.38515	590.69714	-164.73489	-62.29419	433.62106	706.70551	87.76455	431.97626	708.05530	
10	0.090	-232.77391	39.71365	-61.12362	251.91853	40.00233	-54.33401	-222.63696	-69.03013	550.10138	237.68707	-73.20381	550.25928	29.83168	903.59717	-168.48068	-65.32930	585.52869	-164.29932	87.35703	590.68652	-164.78555	-62.36246	433.65549	706.68903	87.67632	431.97971	708.01648	
11	0.100	-232.76025	39.70986	-61.12764	251.93779	39.98881	-54.34119	-222.60825	-69.03254	550.09167	237.72375	-73.20963	550.27362	29.57127	904.13019	-168.38687	-65.32235	585.52716	-164.35887	87.32516	590.68134	-164.85181	-62.36615	433.68890	706.62494	87.65043	432.04663	708.00653	
12	0.110	-232.76454	39.69235	-61.12893	251.84596	39.95959	-54.43289	-222.62985	-69.03414	550.10986	237.65672	-73.24157	550.26489	29.25240	904.91022	-168.25502	-65.29081	585.51434	-164.42467	87.43218	590.63818	-164.83678	-62.42102	433.73453	706.56989	87.58394	432.03693	707.94257	
13	0.120	-232.78810	39.72120	-61.15148	251.93604	39.97717	-54.27160	-222.62096	-69.06897	550.12299	237.68167	-73.21666	550.27869	28.74174	905.67328	-168.23889	-65.24754	585.54633	-164.43546	87.44875	590.65143	-164.86452	-62.43394	433.77087	706.56085	87.59983	432.10474	707.89990	
14	0.130	-232.77702	39.71190	-61.15253	251.93286	40.03431	-54.28392	-222.62773	-69.05109	550.10767	237.69283	-73.19853	550.27020	28.44687	906.37915	-168.16731	-65.27274	585.58734	-164.49937	87.34100	590.71368	-164.90698	-62.43562	433.77408	706.50543	87.60267	432.14929	707.88947	
15	0.140	-232.76985	39.72476	-61.12327	251.87502	39.98005	-54.36663	-222.59254	-69.08736	550.10461	237.70406	-73.25066	550.26398	27.91463	907.22266	-168.21114	-65.28094	585.62787	-164.53947	87.34232	590.76733	-164.99873	-62.42340	433.78555	706.50732	87.57826	432.16235	707.82776	
16	0.150	-232.76701	39.74302	-61.15561	251.87593	39.97163	-54.34074	-222.59586	-69.04797	550.09552	237.70590	-73.26222	550.29156	27.31662	907.85431	-168.06198	-65.30000	585.64484	-164.53391	87.30566	590.82928	-165.01595	-62.45261	433.83392	706.49365	87.60273	432.22165	707.80951	
17	0.160	-232.77020	39.72859	-61.14444	251.87334	40.02365	-54.31937	-222.58775	-69.05441	550.10297	237.72089	-73.23431	550.23700	26.78325	908.54108	-167.89078	-65.28527	585.66388	-164.57033	87.26391	590.87427	-165.07092	-62.46432	433.87445	706.43909	87.35860	432.41934	707.77997	
18	0.170	-232.74954	39.69091	-61.15360	251.88609	39.98239	-54.24864	-222.59972	-69.03615	550.09711	237.72981	-73.26748	550.27338	26.01345	909.32227	-167.89490	-65.29423	585.68549	-164.57626	87.26334	590.91827	-165.07967	-62.55036	433.95862	706.48279	87.54477	432.34979	707.77173	
19	0.180	-232.75519	39.70890	-61.15668	251.82127	40.01521	-54.37905	-222.59271	-69.02730	550.07385	237.62543	-73.28625	550.23792	25.77752	909.75146	-167.91206	-65.29496	585.73492	-164.59442	87.30400	590.97070	-165.08272	-62.44239	433.96350	706.43976	87.57253	432.36600	707.74036	
20	0.190	-232.76521	39.71602	-61.16116	251.89090	40.03489	-54.34387	-222.61920	-68.98652	550.06262	237.72870	-73.25090	550.28638	25.06664	910.37695	-167.97046	-65.31887	585.78857	-164.60220	87.24130	591.04364	-165.12509	-62.53323	433.99521	706.45544	87.53280	432.42908	707.70349	
21	0.200	-232.76083	39.70678	-61.12476	251.83864	40.00065	-54.33960	-222.56863	-69.01610	550.07611	237.70508	-73.22576	550.23602	24.61977	910.84766	-167.97662	-65.23540	585.78107	-164.62991	87.23418	591.08203	-165.18657	-62.55711	434.03058	706.39838	87.58600	432.46240	707.67627	
22	0.210	-232.74901	39.73236	-61.19184	251.93582	39.98898	-54.31965	-222.57997	-69.04133	550.08002	237.68198	-73.30794	550.21283	24.39305	911.26965	-167.82100	-65.27784	585.86902	-164.63472	87.17516	591.17773	-165.22520	-62.58646	434.07040	706.41400	87.52245	432.46759	707.65692	
23	0.220	-232.80011	39.70948	-61.16615	251.85262	40.03623	-54.33842	-222.62090	-69.07023	550.06879	237.69231	-73.32653	550.25311	23.81096	911.51782	-167.90298	-65.25386	585.85577	-164.68005	87.16943	591.17944	-165.23567	-62.56879	434.07571	706.36292	87.52364	432.56995	707.59973	
24	0.230	-232.77136	39.69154	-61.16582	251.88887	40.07652	-54.40359	-222.59276	-69.05201	550.07910	237.69482	-73.29284	550.23523	23.31967	911.85358	-167.94897	-65.27657	585.87793	-164.69841	87.17513	591.18359	-165.27983	-62.54007	434.15756	706.37384	87.12170	433.14664	708.16162	
25	0.240	-232.87549	39.35319	-61.01641	251.84464	39.77118	-54.15974	-222.66902	-69.35193	550.11517	237.69244	-73.47360	550.23895	22.82921	912.13409	-168.03317	-65.26077	586.04108	-164.77628	87.08965	591.34900	-165.28992	-62.48699	434.34702	706.36432	87.75204	432.95865	707.95862	
26	0.250	-232.87910	39.27732	-61.14492	251.81229	39.83230	-54.21047	-222.70740	-69.39326	550.06531	237.69308	-73.75340	550.17120	22.69013	912.36597	-168.40041	-65.21224	586.42590	-164.75871	86.93086	591.88452	-165.27237	-62.50177	434.80527	706.40741	87.80582	433.13489	707.96912	
27	0.260	-232.86118	39.37756	-61.19608	251.73808	39.87761	-54.56169	-222.62834	-69.33208	550.02228	237.63402	-73.57034	550.14722	22.89389	912.02356	-169.28764	-65.39158	587.11432	-164.67924	86.84692	592.71436	-165.24889	-62.59029	435.36334	706.27722	87.70671	433.52997	707.55884	
28	0.270	-232.89146	39.40459	-61.18568	251.80948	39.97799	-54.50587	-222.60052	-69.30036	549.99579	237.69911	-73.56245	550.15771	23.16852	911.68292	-170.59016	-65.32780	588.20496	-164.42366	87.00668	593.66724	-164.98012	-62.62801	435.65909	706.40424	87.68045	434.07898	707.67932	
29	0.280	-232.83810	39.42906	-61.26578	251.87698	40.00180	-54.59516	-222.52954	-69.24036	549.98871	237.68208	-73.59831	550.13660	23.72743	911.43750	-172.03864	-65.55888	589.16895	-164.36374	86.74689	594.66119	-164.96788	-62.63439	436.64078	706.46063	87.67390	435.08386	708.25446	
30	0.290	-232.88557	39.44569	-61.32943	251.76781	40.01775	-54.48920	-222.58206	-69.20380	549.93744	237.77379	-73.49798	550.12122	24.17681	911.28259	-173.15508	-65.35037	590.29785	-164.13148	87.05359	596.03137	-165.11786	-62.10461	437.17459	706.53333	88.94823	436.51575	709.63300	
31	0.300	-232.88730	39.45157	-61.39416	251.78709	40.00311	-54.55826	-222.54636	-69.21823	549.87781	237.73366	-73.48438	550.07172	24.31231	911.45160	-174.26529	-65.49477	591.45837	-163.96542	86.69057	597.16064	-165.11653	-62.59148	438.71362	706.61298	87.65998	437.19342	707.87634	
32	0.310	-232.88110	39.46168	-61.48525	251.86128	40.03481	-54.60551	-222.54349	-69.18966	549.81042	237.70688	-73.47964	550.00037	24.57261	911.65918	-174.93723	-65.28230	592.61389	-163.92155	87.16999	598.41425	-164.77287	-62.74920	440.67914	707.19604	87.95057	439.07822	709.10028	
33	0.320	-232.88139	39.49597	-61.55491	251.85420	40.20942	-54.61597	-222.61105	-69.18720	549.75153	237.77620	-73.42492	549.94727	24.41124	912.03412	-175.97543	-65.17788	593.87335	-163.76083	86.84869	599.71863	-164.79645	-62.57389	442.51041	707.45313	87.90849	440.83511	708.80383	
34	0.330	-232.86963	39.53277	-61.60802	251.82698	40.05758	-54.78096	-222.63538	-69.20822	549.66272	237.78113	-73.33976	549.93213	24.51198	912.45483	-176.60170	-64.99393	595.21948	-163.56172	87.34200	600.88110	-164.41383	-62.67073	444.20810	707.62915	87.27037	442.61832	709.05853	
35	0.340	-232.90158	39.49432	-61.69158	251.96208	40.05096	-54.82103	-222.67929	-69.19559	549.55066	237.74631	-73.38445	549.83691	24.23491	912.99542	-177.27390	-64.72910	596.28619	-163.50723	87.28164	602.03210	-163.78780	-63.01260	445.91589	707.65479	87.31158	444.37863	709.21808	
36	0.350	-232.92519	39.46693	-61.73177	251.94283	40.06174	-54.95455	-222.72119	-69.19532	549.45038	237.64838	-73.40919	549.71136	24.14391	913.74005	-177.88580	-64.71609	597.75049	-163.33157	86.74971	603.45294	-163.70699	-62.84718	447.26617	707.78033	87.55097	446.36514	709.86060	
37	0.360	-232.93478	39.49650	-61.81721	251.83195	40.19380	-55.07761	-222.75031	-69.21086	549.36450	237.72046	-73.36565	549.64252	24.39605	914.41382	-178.52969	-64.46713	599.26324	-163.16008	87.82832	604.87854	-163.85909	-62.88869	449.65176	708.28040	87.96429	448.76654	711.38007	
38	0.370	-232.92130	39.52673	-61.89460	251.95784	40.05916	-55.12719	-222.73776	-69.15653	549.27618	237.74586	-73.35104	549.56299	24.65454	915.12408	-179.02087	-64.34100	600.53809	-163.03481	87.71487	606.24725	-163.34242	-63.08930	451.71066	708.46875	88.04871	450.09747	711.33295	
39	0.380	-232.92212	39.63989	-62.01341	252.01341	40.05972	-55.21645	-222.78319	-69.11829	549.19189	237.77277	-73.28821	549.47186	24.80393	916.00641	-179.54332	-64.45887	602.15619	-162.91174	87.77782	607.74707	-163.22629	-63.28026	453.54126	708.58386	87.33270	452.27090	711.89355	
